<svg height="512.00073pt" viewBox="0 0 512.00073 512.00073" width="512.00073pt" xmlns="http://www.w3.org/2000/svg" xmlns:xlink="http://www.w3.org/1999/xlink"><linearGradient id="a"><stop offset="0" stop-color="#e93e3a"/><stop offset=".355" stop-color="#ed683c"/><stop offset=".705" stop-color="#f3903f"/><stop offset="1" stop-color="#fdc70c"/></linearGradient><linearGradient id="b" gradientTransform="matrix(.698866 0 0 -.698866 0 506.501739)" gradientUnits="userSpaceOnUse" x1="366.3076" x2="366.3076" xlink:href="#a" y1="-6.4711" y2="811.6998"/><linearGradient id="c" gradientTransform="matrix(.698866 0 0 -.698866 0 506.501739)" gradientUnits="userSpaceOnUse" x1="297.6249" x2="297.6249" xlink:href="#a" y1="-6.4711" y2="811.6998"/><linearGradient id="d" gradientTransform="matrix(.698866 0 0 -.698866 0 506.501739)" gradientUnits="userSpaceOnUse" x1="434.9903" x2="434.9903" xlink:href="#a" y1="-6.4711" y2="811.6998"/><path d="m256 0c-141.382812 0-256 114.617188-256 256 0 141.386719 114.617188 256 256 256 141.386719 0 256-114.613281 256-256-.167969-141.316406-114.683594-255.832031-256-256zm0 480c-123.710938 0-224-100.289062-224-224s100.289062-224 224-224 224 100.289062 224 224c-.132812 123.65625-100.34375 223.867188-224 224zm0 0" fill="url(#b)"/><path d="m192 112h32v288h-32zm0 0" fill="url(#c)"/><path d="m288 112h32v288h-32zm0 0" fill="url(#d)"/></svg>