<?xml version="1.0" encoding="utf-8"?>
<!-- Copyright 2016 Canva Inc. All Rights Reserved. -->

<!-- Generator: Adobe Illustrator 19.0.0, SVG Export Plug-In . SVG Version: 6.00 Build 0)  -->
<svg version="1.1" id="Layer_1" xmlns="http://www.w3.org/2000/svg" xmlns:xlink="http://www.w3.org/1999/xlink" x="0px" y="0px"
	 viewBox="0 0 11.1 15" style="enable-background:new 0 0 11.1 15;" xml:space="preserve">
<style type="text/css">
	.st0{fill:#3F4652;}
</style>
<g id="XMLID_1450_">
	<path id="XMLID_1456_" class="st0" d="M1435,850h4.7c2.1,0,3.7,0.3,4.6,0.9c1,0.6,1.4,1.6,1.4,2.9c0,0.9-0.2,1.6-0.6,2.2
		c-0.4,0.6-1,0.9-1.7,1v0.1c1,0.2,1.6,0.6,2.1,1.2c0.4,0.6,0.6,1.4,0.6,2.3c0,1.4-0.5,2.4-1.5,3.2c-1,0.8-2.3,1.1-4,1.1h-5.6V850z
		 M1438.2,855.9h1.8c0.9,0,1.5-0.1,1.9-0.4c0.4-0.3,0.6-0.7,0.6-1.3c0-0.6-0.2-1-0.6-1.2c-0.4-0.2-1.1-0.4-2-0.4h-1.7V855.9z
		 M1438.2,858.5v3.9h2.1c0.9,0,1.5-0.2,1.9-0.5c0.4-0.3,0.6-0.8,0.6-1.5c0-1.2-0.9-1.9-2.7-1.9H1438.2z"/>
</g>
<g id="XMLID_1_">
	<path id="XMLID_2_" class="st0" d="M0,0h4.7c2.1,0,3.7,0.3,4.6,0.9c1,0.6,1.4,1.6,1.4,2.9c0,0.9-0.2,1.6-0.6,2.2
		c-0.4,0.6-1,0.9-1.7,1v0.1c1,0.2,1.6,0.6,2.1,1.2c0.4,0.6,0.6,1.4,0.6,2.3c0,1.4-0.5,2.4-1.5,3.2S7.3,15,5.6,15H0V0z M3.2,5.9H5
		c0.9,0,1.5-0.1,1.9-0.4s0.6-0.7,0.6-1.3c0-0.6-0.2-1-0.6-1.2c-0.4-0.2-1.1-0.4-2-0.4H3.2V5.9z M3.2,8.5v3.9h2.1
		c0.9,0,1.5-0.2,1.9-0.5c0.4-0.3,0.6-0.8,0.6-1.5c0-1.2-0.9-1.9-2.7-1.9H3.2z"/>
</g>
</svg>
