<?xml version="1.0" encoding="iso-8859-1"?>
<!-- Generator: Adobe Illustrator 19.0.0, SVG Export Plug-In . SVG Version: 6.00 Build 0)  -->
<svg version="1.1" id="Layer_1" xmlns="http://www.w3.org/2000/svg" xmlns:xlink="http://www.w3.org/1999/xlink" x="0px" y="0px"
	 viewBox="0 0 512 512" style="enable-background:new 0 0 512 512;" xml:space="preserve">
<path style="fill:#E21B1B;" d="M0,364.952h419.136L512,146.84H0V364.952z"/>
<rect y="146.84" width="30.712" height="218.32"/>
<g>
	<path style="fill:#FFFFFF;" d="M167.008,250.496h51.504l-10.4,49.392c-6.96,4.328-14.472,7.68-22.336,9.976
		c-8.736,2.704-17.824,4.08-26.968,4.08c-11.72,0.784-23.336-2.64-32.752-9.656c-10.752-9.704-16.48-23.784-15.544-38.24
		c-0.024-11.08,2.248-22.04,6.68-32.192c4.704-11.56,12.624-21.536,22.808-28.744c10.232-6.92,22.36-10.488,34.712-10.208
		c11.4-0.568,22.664,2.688,32,9.264c8.408,6.784,14.096,16.376,16,27.008l-22.064,2.512c-1.496-5.784-4.808-10.928-9.448-14.68
		c-4.728-3.424-10.464-5.168-16.296-4.944c-15.944-0.248-30.336,9.52-36,24.424c-3.672,8.608-5.52,17.888-5.424,27.248
		c-0.64,7.744,1.72,15.432,6.592,21.48c5.176,4.928,12.192,7.456,19.32,6.944c5.28-0.032,10.536-0.752,15.624-2.16
		c4.76-1.232,9.384-2.952,13.784-5.144l3.528-17.12H163L167.008,250.496z"/>
	<path style="fill:#FFFFFF;" d="M227,311.984l24.104-115.112h23.64l-24,115.112H227z"/>
	<path style="fill:#FFFFFF;" d="M272.384,311.984l24.112-115.112h80.56l-4.088,19.2H316.12l-5.808,27.64h55.752l-4,19.2h-55.76
		l-10.208,49L272.384,311.984z"/>
</g>
<polygon style="fill:#F91E1E;" points="116.48,147.088 139.416,170.032 402.424,170.032 427.288,194.888 492.272,194.888 
	512,146.84 "/>
<g>
</g>
<g>
</g>
<g>
</g>
<g>
</g>
<g>
</g>
<g>
</g>
<g>
</g>
<g>
</g>
<g>
</g>
<g>
</g>
<g>
</g>
<g>
</g>
<g>
</g>
<g>
</g>
<g>
</g>
</svg>
