<svg xmlns="http://www.w3.org/2000/svg" width="24" height="24" viewBox="0 0 24 24">
  <path fill="#fff" d="M14.4003975,8.25418419 C14.7322382,8.0914009 15.1054452,8 15.5,8 C16.8807119,8 18,9.11928813 18,10.5 C18,10.6808309 17.9808009,10.8571776 17.9443299,11.0271129 C19.6669719,11.242793 21,12.7187175 21,14.5 C21,16.4329966 19.4341063,18 17.5080761,18 L6.49192389,18 C4.56338758,18 3,16.4290634 3,14.5 C3,12.7238222 4.32212633,11.2566625 6.0309175,11.0302991 C6.01049948,10.8563723 6,10.6794123 6,10.5 C6,8.01471863 8.01471863,6 10.5,6 C12.1673619,6 13.6229236,6.90682399 14.4003975,8.25418419 Z M11,10 L11,12.9997884 L12.5,12.9997884 L12.5,10 L11,10 Z M11,14 L11,15.5 L12.5,15.5 L12.5,14 L11,14 Z"/>
</svg>
