<svg viewBox="1 1 511.99998 511.99998" xmlns="http://www.w3.org/2000/svg"><path d="m512 256c0 75.429688-32.621094 143.246094-84.542969 190.097656-14.429687 13.019532-30.34375 24.417969-47.460937 33.929688-5.621094 3.113281-11.367188 6.027344-17.238282 8.722656-32.496093 14.921875-68.648437 23.25-106.757812 23.25-138.554688 0-251.390625-110.058594-255.855469-247.527344-.1015622-2.808594-.144531-5.640625-.144531-8.472656 0-14.648438 1.234375-29.015625 3.605469-42.996094 1.191406-7.066406 2.675781-14.035156 4.441406-20.898437 8.378906-32.664063 23.050781-62.800781 42.640625-89.058594 8.128906-10.886719 17.105469-21.117187 26.824219-30.574219 7.667969-7.460937 15.808593-14.4375 24.367187-20.898437 42.871094-32.367188 96.253906-51.574219 154.121094-51.574219s111.25 19.195312 154.121094 51.574219c15.84375 11.957031 30.242187 25.707031 42.894531 40.960937 36.84375 44.335938 58.984375 101.324219 58.984375 163.464844zm0 0" fill="#fcda42"/><path d="m453.015625 87.15625v90.265625c0 19.65625-15.925781 35.582031-35.578125 35.582031h-413.832031c1.191406-7.066406 2.675781-14.035156 4.441406-20.898437 8.378906-32.664063 23.050781-62.800781 42.640625-89.058594 8.128906-10.886719 17.105469-21.117187 26.824219-30.574219 7.667969-7.460937 15.808593-14.4375 24.367187-20.898437h315.558594c19.652344 0 35.578125 15.9375 35.578125 35.582031zm0 0" fill="#5a9ed1"/><path d="m432.117188 87.15625v90.265625c0 8.101563-6.582032 14.683594-14.679688 14.683594h-409.390625c8.378906-32.664063 23.050781-62.800781 42.640625-89.058594 8.128906-10.886719 17.105469-21.117187 26.824219-30.574219h339.925781c8.097656 0 14.679688 6.585938 14.679688 14.683594zm0 0" fill="#fff"/><g fill="#ededed"><path d="m49.417969 155.335938c0-13.246094-34.699219-10.949219-34.699219-36.5625 0-16.421876 14.339844-22.660157 28.023438-22.660157 5.800781 0 21.785156 1.09375 21.785156 9.632813 0 2.953125-1.972656 8.976562-6.789063 8.976562-3.9375 0-6.019531-4.160156-14.996093-4.160156-7.773438 0-10.949219 3.171875-10.949219 6.566406 0 10.949219 34.703125 8.867188 34.703125 36.453125 0 15.765625-11.492188 24.304688-27.367188 24.304688-14.339844 0-26.382812-7.007813-26.382812-14.234375 0-3.71875 3.285156-9.195313 7.445312-9.195313 5.144532 0 8.429688 8.101563 18.609375 8.101563 5.035157 0 10.617188-1.96875 10.617188-7.222656zm0 0"/><path d="m92 130.15625h16.421875c3.28125 0 5.144531 3.175781 5.144531 6.679688 0 2.953124-1.535156 6.457031-5.144531 6.457031h-16.421875v18.609375h29.335938c3.285156 0 5.148437 3.503906 5.148437 7.554687 0 3.503907-1.535156 7.332031-5.148437 7.332031h-38.96875c-3.722657 0-7.445313-1.75-7.445313-5.253906v-69.511718c0-3.503907 3.722656-5.253907 7.445313-5.253907h38.96875c3.613281 0 5.148437 3.832031 5.148437 7.332031 0 4.050782-1.863281 7.554688-5.148437 7.554688h-29.335938zm0 0"/><path d="m128.449219 169.785156c0-.328125.109375-.765625.21875-1.203125l20.363281-66.777343c1.203125-3.832032 6.128906-5.691407 11.164062-5.691407 5.039063 0 9.960938 1.859375 11.167969 5.691407l20.46875 66.777343c.109375.4375.222657.875.222657 1.203125 0 4.050782-6.242188 7.007813-10.949219 7.007813-2.738281 0-4.925781-.878907-5.582031-3.175781l-3.722657-13.683594h-23.097656l-3.722656 13.683594c-.65625 2.296874-2.847657 3.175781-5.585938 3.175781-4.707031 0-10.945312-2.957031-10.945312-7.007813zm39.738281-22.988281-7.992188-29.339844-7.992187 29.339844zm0 0"/><path d="m198.394531 101.914062c0-2.738281 2.082031-5.144531 5.257813-5.144531h22.660156c14.996094 0 26.929688 5.582031 26.929688 23.425781 0 12.261719-5.585938 19.265626-13.246094 22.222657l13.351562 24.191406c.4375.65625.550782 1.421875.550782 1.972656 0 4.269531-5.695313 8.867188-10.730469 8.867188-2.1875 0-4.269531-.878907-5.472657-3.175781l-15-29.121094h-7.222656v26.382812c0 3.503906-4.269531 5.257813-8.539062 5.257813-4.269532 0-8.539063-1.753907-8.539063-5.257813zm17.078125 9.742188v20.363281h10.839844c6.128906 0 9.851562-2.519531 9.851562-10.179687 0-7.664063-3.722656-10.183594-9.851562-10.183594zm0 0"/><path d="m288.378906 111.65625c-6.242187 0-9.851562 3.503906-9.851562 10.949219v29.007812c0 7.445313 3.609375 10.949219 9.960937 10.949219 8.757813 0 9.304688-6.679688 9.632813-10.949219.328125-4.050781 4.050781-5.144531 8.429687-5.144531 5.910157 0 8.648438 1.53125 8.648438 8.101562 0 14.558594-11.824219 22.878907-27.480469 22.878907-14.339844 0-26.273438-7.007813-26.273438-25.835938v-29.007812c0-18.832031 11.933594-25.835938 26.273438-25.835938 15.65625 0 27.480469 7.882813 27.480469 21.785157 0 6.566406-2.738281 8.101562-8.539063 8.101562-4.597656 0-8.320312-1.207031-8.539062-5.144531-.109375-2.847657-.4375-9.855469-9.742188-9.855469zm0 0"/><path d="m362.703125 141.871094h-21.785156v29.664062c0 3.503906-4.265625 5.257813-8.535157 5.257813-4.269531 0-8.539062-1.753907-8.539062-5.257813v-69.621094c0-3.613281 4.269531-5.144531 8.539062-5.144531 4.269532 0 8.535157 1.53125 8.535157 5.144531v26.820313h21.785156v-26.820313c0-3.613281 4.269531-5.144531 8.539063-5.144531 4.269531 0 8.539062 1.53125 8.539062 5.144531v69.621094c0 3.503906-4.269531 5.257813-8.539062 5.257813-4.269532 0-8.539063-1.753907-8.539063-5.257813zm0 0"/></g><path d="m427.457031 446.097656c-19.164062 17.292969-40.949219 31.734375-64.699219 42.652344l-27.179687-34.617188-26.519531-33.78125 37.660156-37.648437 31.691406 24.878906zm0 0" fill="#ff4f9b"/><path d="m379.996094 480.027344c-5.621094 3.113281-11.367188 6.027344-17.238282 8.722656l-27.179687-34.617188-26.519531-33.78125 9.519531-9.519531 28.140625-28.128906 31.691406 24.878906c-1.839844 3.105469-4.953125 7.304688-8.503906 11.757813-12.007812 15.023437-11.328125 36.550781 1.429688 50.925781zm0 0" fill="#e8388c"/><path d="m382.144531 313.140625c0 83.746094-67.886719 151.636719-151.636719 151.636719-83.746093 0-151.632812-67.890625-151.632812-151.636719s67.886719-151.636719 151.632812-151.636719c83.75 0 151.636719 67.890625 151.636719 151.636719zm0 0" fill="#583377"/><path d="m312.4375 231.21875c45.242188 45.246094 45.234375 118.601562-.011719 163.84375-4.304687 4.304688-8.859375 8.195312-13.621093 11.679688-45.308594 33.15625-109.273438 29.257812-150.210938-11.679688s-44.835938-104.902344-11.6875-150.21875c3.480469-4.765625 7.371094-9.320312 11.679688-13.625 45.242187-45.242188 118.605468-45.242188 163.851562 0zm0 0" fill="#fff"/><path d="m287.132812 256.519531c40.945313 40.949219 44.835938 104.902344 11.671876 150.222657-45.3125 33.15625-109.273438 29.257812-150.210938-11.679688-40.941406-40.9375-44.839844-104.902344-11.6875-150.21875 45.316406-33.167969 109.28125-29.269531 150.226562 11.675781zm0 0" fill="#ededed"/></svg>